<svg width="144" height="54" viewBox="0 0 144 54" fill="none" xmlns="http://www.w3.org/2000/svg">
<g filter="url(#filter0_dd_36_99)">
<rect x="4" width="46" height="46" fill="#D9D9D9"/>
<rect x="4.5" y="0.5" width="45" height="45" stroke="black"/>
</g>
<path d="M64.736 13.952H70.8V14.672H64.736V13.952ZM64.832 19.264H71.744V20H64.016V8.8H71.504V9.536H64.832V19.264ZM77.4165 20.064C76.6058 20.064 75.8805 19.8827 75.2405 19.52C74.6112 19.1573 74.1098 18.656 73.7365 18.016C73.3738 17.376 73.1925 16.6453 73.1925 15.824C73.1925 14.992 73.3738 14.256 73.7365 13.616C74.1098 12.976 74.6112 12.48 75.2405 12.128C75.8805 11.7653 76.6058 11.584 77.4165 11.584C78.0885 11.584 78.6965 11.712 79.2405 11.968C79.7952 12.224 80.2432 12.608 80.5845 13.12L79.9925 13.552C79.6938 13.1253 79.3205 12.8107 78.8725 12.608C78.4245 12.4053 77.9392 12.304 77.4165 12.304C76.7658 12.304 76.1792 12.4533 75.6565 12.752C75.1445 13.04 74.7392 13.4507 74.4405 13.984C74.1525 14.5067 74.0085 15.12 74.0085 15.824C74.0085 16.528 74.1525 17.1467 74.4405 17.68C74.7392 18.2027 75.1445 18.6133 75.6565 18.912C76.1792 19.2 76.7658 19.344 77.4165 19.344C77.9392 19.344 78.4245 19.2427 78.8725 19.04C79.3205 18.8373 79.6938 18.5227 79.9925 18.096L80.5845 18.528C80.2432 19.04 79.7952 19.424 79.2405 19.68C78.6965 19.936 78.0885 20.064 77.4165 20.064ZM84.2793 20V12.128L84.5033 12.368H81.0152V11.648H88.3433V12.368H84.8553L85.0793 12.128V20H84.2793ZM93.4001 14.688C94.4348 14.6987 95.2241 14.928 95.7681 15.376C96.3121 15.8133 96.5841 16.4587 96.5841 17.312C96.5841 18.1973 96.2961 18.8747 95.7201 19.344C95.1441 19.8133 94.3068 20.0427 93.2081 20.032L90.0561 20V11.648H90.8561V14.656L93.4001 14.688ZM93.1921 19.392C94.0455 19.4027 94.6855 19.232 95.1121 18.88C95.5495 18.528 95.7681 18.0053 95.7681 17.312C95.7681 16.64 95.5548 16.1387 95.1281 15.808C94.7015 15.4773 94.0561 15.3067 93.1921 15.296L90.8561 15.28V19.36L93.1921 19.392ZM63.728 37V28.648H67.248C68.1653 28.648 68.8907 28.8293 69.424 29.192C69.9573 29.5547 70.224 30.0827 70.224 30.776C70.224 31.4587 69.9627 31.976 69.44 32.328C68.928 32.68 68.2613 32.856 67.44 32.856L67.664 32.616C68.6453 32.616 69.3653 32.7973 69.824 33.16C70.2827 33.5227 70.512 34.056 70.512 34.76C70.512 35.4747 70.2507 36.0293 69.728 36.424C69.216 36.808 68.4213 37 67.344 37H63.728ZM64.512 36.344H67.328C68.1067 36.344 68.6987 36.216 69.104 35.96C69.5093 35.704 69.712 35.2933 69.712 34.728C69.712 34.152 69.5307 33.736 69.168 33.48C68.816 33.2133 68.2453 33.08 67.456 33.08H64.512V36.344ZM64.512 32.456H67.2C67.904 32.456 68.448 32.3227 68.832 32.056C69.2267 31.7893 69.424 31.3947 69.424 30.872C69.424 30.3493 69.2267 29.96 68.832 29.704C68.448 29.4373 67.904 29.304 67.2 29.304H64.512V32.456ZM76.681 37.064C75.881 37.064 75.1663 36.8827 74.537 36.52C73.9183 36.1573 73.4223 35.656 73.049 35.016C72.6863 34.376 72.505 33.6453 72.505 32.824C72.505 31.992 72.6863 31.2613 73.049 30.632C73.4223 29.992 73.9183 29.4907 74.537 29.128C75.1663 28.7653 75.881 28.584 76.681 28.584C77.481 28.584 78.1957 28.7653 78.825 29.128C79.4543 29.4907 79.9503 29.992 80.313 30.632C80.6757 31.2613 80.857 31.992 80.857 32.824C80.857 33.6453 80.6757 34.376 80.313 35.016C79.9503 35.656 79.4543 36.1573 78.825 36.52C78.1957 36.8827 77.481 37.064 76.681 37.064ZM76.681 36.344C77.321 36.344 77.897 36.2 78.409 35.912C78.921 35.6133 79.321 35.1973 79.609 34.664C79.897 34.1307 80.041 33.5173 80.041 32.824C80.041 32.12 79.897 31.5067 79.609 30.984C79.321 30.4507 78.921 30.04 78.409 29.752C77.897 29.4533 77.321 29.304 76.681 29.304C76.041 29.304 75.465 29.4533 74.953 29.752C74.4517 30.04 74.0517 30.4507 73.753 30.984C73.465 31.5067 73.321 32.12 73.321 32.824C73.321 33.5173 73.465 34.1307 73.753 34.664C74.0517 35.1973 74.4517 35.6133 74.953 35.912C75.465 36.2 76.041 36.344 76.681 36.344ZM83.4624 37V28.648H90.7584V37H89.9584V29.128L90.1824 29.368H84.0384L84.2624 29.128V37H83.4624ZM98.4204 37.064C97.6844 37.064 97.0177 36.8933 96.4204 36.552C95.8337 36.2107 95.3644 35.7253 95.0124 35.096C94.671 34.456 94.5004 33.6987 94.5004 32.824C94.5004 31.9493 94.671 31.1973 95.0124 30.568C95.3644 29.928 95.8337 29.4373 96.4204 29.096C97.0177 28.7547 97.6844 28.584 98.4204 28.584C99.2097 28.584 99.9137 28.7653 100.532 29.128C101.162 29.48 101.652 29.976 102.004 30.616C102.367 31.256 102.548 31.992 102.548 32.824C102.548 33.656 102.367 34.392 102.004 35.032C101.652 35.672 101.162 36.1733 100.532 36.536C99.9137 36.888 99.2097 37.064 98.4204 37.064ZM94.2284 40.104V28.648H94.9964V31.384L94.8684 32.84L95.0284 34.296V40.104H94.2284ZM98.3724 36.344C99.0124 36.344 99.5884 36.2 100.1 35.912C100.612 35.6133 101.012 35.1973 101.3 34.664C101.599 34.1307 101.748 33.5173 101.748 32.824C101.748 32.12 101.599 31.5067 101.3 30.984C101.012 30.4507 100.612 30.04 100.1 29.752C99.5884 29.4533 99.0124 29.304 98.3724 29.304C97.7324 29.304 97.1564 29.4533 96.6444 29.752C96.143 30.04 95.743 30.4507 95.4444 30.984C95.1564 31.5067 95.0124 32.12 95.0124 32.824C95.0124 33.5173 95.1564 34.1307 95.4444 34.664C95.743 35.1973 96.143 35.6133 96.6444 35.912C97.1564 36.2 97.7324 36.344 98.3724 36.344ZM108.478 37.064C107.678 37.064 106.963 36.8827 106.334 36.52C105.715 36.1573 105.219 35.656 104.846 35.016C104.483 34.376 104.302 33.6453 104.302 32.824C104.302 31.992 104.483 31.2613 104.846 30.632C105.219 29.992 105.715 29.4907 106.334 29.128C106.963 28.7653 107.678 28.584 108.478 28.584C109.278 28.584 109.993 28.7653 110.622 29.128C111.251 29.4907 111.747 29.992 112.11 30.632C112.473 31.2613 112.654 31.992 112.654 32.824C112.654 33.6453 112.473 34.376 112.11 35.016C111.747 35.656 111.251 36.1573 110.622 36.52C109.993 36.8827 109.278 37.064 108.478 37.064ZM108.478 36.344C109.118 36.344 109.694 36.2 110.206 35.912C110.718 35.6133 111.118 35.1973 111.406 34.664C111.694 34.1307 111.838 33.5173 111.838 32.824C111.838 32.12 111.694 31.5067 111.406 30.984C111.118 30.4507 110.718 30.04 110.206 29.752C109.694 29.4533 109.118 29.304 108.478 29.304C107.838 29.304 107.262 29.4533 106.75 29.752C106.249 30.04 105.849 30.4507 105.55 30.984C105.262 31.5067 105.118 32.12 105.118 32.824C105.118 33.5173 105.262 34.1307 105.55 34.664C105.849 35.1973 106.249 35.6133 106.75 35.912C107.262 36.2 107.838 36.344 108.478 36.344ZM118.635 37.064C117.825 37.064 117.099 36.8827 116.459 36.52C115.83 36.1573 115.329 35.656 114.955 35.016C114.593 34.376 114.411 33.6453 114.411 32.824C114.411 31.992 114.593 31.256 114.955 30.616C115.329 29.976 115.83 29.48 116.459 29.128C117.099 28.7653 117.825 28.584 118.635 28.584C119.307 28.584 119.915 28.712 120.459 28.968C121.014 29.224 121.462 29.608 121.803 30.12L121.211 30.552C120.913 30.1253 120.539 29.8107 120.091 29.608C119.643 29.4053 119.158 29.304 118.635 29.304C117.985 29.304 117.398 29.4533 116.875 29.752C116.363 30.04 115.958 30.4507 115.659 30.984C115.371 31.5067 115.227 32.12 115.227 32.824C115.227 33.528 115.371 34.1467 115.659 34.68C115.958 35.2027 116.363 35.6133 116.875 35.912C117.398 36.2 117.985 36.344 118.635 36.344C119.158 36.344 119.643 36.2427 120.091 36.04C120.539 35.8373 120.913 35.5227 121.211 35.096L121.803 35.528C121.462 36.04 121.014 36.424 120.459 36.68C119.915 36.936 119.307 37.064 118.635 37.064ZM132.182 37V28.648H132.982V37H132.182ZM127.462 31.688C128.507 31.6987 129.296 31.928 129.83 32.376C130.374 32.8133 130.646 33.4587 130.646 34.312C130.646 35.1973 130.358 35.8747 129.782 36.344C129.206 36.8133 128.374 37.0427 127.286 37.032L124.166 37V28.648H124.966V31.656L127.462 31.688ZM127.254 36.392C128.107 36.4027 128.752 36.232 129.19 35.88C129.627 35.528 129.846 35.0053 129.846 34.312C129.846 33.64 129.627 33.1387 129.19 32.808C128.763 32.4773 128.118 32.3067 127.254 32.296L124.966 32.28V36.36L127.254 36.392ZM138.637 33.784C138.637 33.3253 138.707 32.9307 138.845 32.6C138.995 32.2693 139.181 31.9813 139.405 31.736C139.64 31.48 139.885 31.2453 140.141 31.032C140.397 30.808 140.637 30.584 140.861 30.36C141.096 30.1253 141.283 29.8693 141.421 29.592C141.571 29.304 141.645 28.9627 141.645 28.568C141.645 27.9493 141.4 27.4427 140.909 27.048C140.429 26.6427 139.741 26.44 138.845 26.44C138.131 26.44 137.507 26.552 136.973 26.776C136.451 26.9893 136.003 27.32 135.629 27.768L135.037 27.304C135.464 26.792 135.997 26.4027 136.637 26.136C137.288 25.8587 138.04 25.72 138.893 25.72C139.619 25.72 140.248 25.832 140.781 26.056C141.325 26.28 141.741 26.6 142.029 27.016C142.328 27.4213 142.477 27.9013 142.477 28.456C142.477 28.9253 142.403 29.3253 142.253 29.656C142.115 29.9867 141.928 30.28 141.693 30.536C141.469 30.792 141.229 31.032 140.973 31.256C140.717 31.4693 140.472 31.6933 140.237 31.928C140.013 32.1627 139.827 32.4293 139.677 32.728C139.539 33.0267 139.469 33.3787 139.469 33.784H138.637ZM139.053 37.064C138.872 37.064 138.717 37 138.589 36.872C138.461 36.7333 138.397 36.5787 138.397 36.408C138.397 36.2267 138.461 36.072 138.589 35.944C138.717 35.816 138.872 35.752 139.053 35.752C139.245 35.752 139.405 35.816 139.533 35.944C139.661 36.072 139.725 36.2267 139.725 36.408C139.725 36.5787 139.661 36.7333 139.533 36.872C139.405 37 139.245 37.064 139.053 37.064Z" fill="black"/>
<defs>
<filter id="filter0_dd_36_99" x="0" y="0" width="54" height="54" filterUnits="userSpaceOnUse" color-interpolation-filters="sRGB">
<feFlood flood-opacity="0" result="BackgroundImageFix"/>
<feColorMatrix in="SourceAlpha" type="matrix" values="0 0 0 0 0 0 0 0 0 0 0 0 0 0 0 0 0 0 127 0" result="hardAlpha"/>
<feOffset dy="4"/>
<feGaussianBlur stdDeviation="2"/>
<feComposite in2="hardAlpha" operator="out"/>
<feColorMatrix type="matrix" values="0 0 0 0 0 0 0 0 0 0 0 0 0 0 0 0 0 0 0.25 0"/>
<feBlend mode="normal" in2="BackgroundImageFix" result="effect1_dropShadow_36_99"/>
<feColorMatrix in="SourceAlpha" type="matrix" values="0 0 0 0 0 0 0 0 0 0 0 0 0 0 0 0 0 0 127 0" result="hardAlpha"/>
<feOffset dy="4"/>
<feGaussianBlur stdDeviation="2"/>
<feComposite in2="hardAlpha" operator="out"/>
<feColorMatrix type="matrix" values="0 0 0 0 0 0 0 0 0 0 0 0 0 0 0 0 0 0 0.25 0"/>
<feBlend mode="normal" in2="effect1_dropShadow_36_99" result="effect2_dropShadow_36_99"/>
<feBlend mode="normal" in="SourceGraphic" in2="effect2_dropShadow_36_99" result="shape"/>
</filter>
</defs>
</svg>
